<?xml version="1.0" encoding="UTF-8" standalone="no"?>
<!-- Created with Inkscape (http://www.inkscape.org/) -->

<svg
   width="248.94287"
   height="63.703655"
   viewBox="0 0 65.866133 16.854925"
   version="1.1"
   id="svg1"
   xml:space="preserve"
   inkscape:version="1.3 (0e150ed6c4, 2023-07-21)"
   sodipodi:docname="Vistas v7.svg"
   inkscape:export-filename="Vistas v6.pdf"
   inkscape:export-xdpi="96"
   inkscape:export-ydpi="96"
   xmlns:inkscape="http://www.inkscape.org/namespaces/inkscape"
   xmlns:sodipodi="http://sodipodi.sourceforge.net/DTD/sodipodi-0.dtd"
   xmlns="http://www.w3.org/2000/svg"
   xmlns:svg="http://www.w3.org/2000/svg"><sodipodi:namedview
     id="namedview1"
     pagecolor="#ffffff"
     bordercolor="#000000"
     borderopacity="0.25"
     inkscape:showpageshadow="2"
     inkscape:pageopacity="0.0"
     inkscape:pagecheckerboard="0"
     inkscape:deskcolor="#7e7e7e"
     inkscape:document-units="mm"
     inkscape:zoom="0.36044782"
     inkscape:cx="4165.6515"
     inkscape:cy="428.63347"
     inkscape:window-width="1680"
     inkscape:window-height="979"
     inkscape:window-x="-8"
     inkscape:window-y="-8"
     inkscape:window-maximized="1"
     inkscape:current-layer="g347"
     showgrid="false"
     inkscape:export-bgcolor="#ffffff00"><inkscape:page
       x="-1.1462382e-06"
       y="9.9017541e-08"
       width="65.866135"
       height="16.854925"
       id="page2"
       margin="0"
       bleed="0" /></sodipodi:namedview><defs
     id="defs1"><rect
       x="602.36493"
       y="211.24603"
       width="112.94343"
       height="29.281628"
       id="rect347" /></defs><g
     inkscape:groupmode="layer"
     id="g347"
     inkscape:label="Vista admi"
     transform="matrix(2.6653941,0,0,1.4368916,-1051.6861,-42.346693)"
     style="display:inline"><g
       id="g341"
       transform="matrix(0.85276116,0,0,0.85276116,-53.182693,-21.765585)"
       inkscape:export-filename=".\icono"
       inkscape:export-xdpi="96"
       inkscape:export-ydpi="96"><g
         id="g340"
         transform="matrix(0.37517904,0,0,0.69594673,460.1565,-102.43974)"><text
           xml:space="preserve"
           transform="matrix(0.58414613,0,0,0.58414613,-156.44777,112.86334)"
           id="text336"
           style="font-style:normal;font-variant:normal;font-weight:bold;font-stretch:normal;font-size:24px;font-family:'Microsoft YaHei';-inkscape-font-specification:'Microsoft YaHei, Bold';font-variant-ligatures:normal;font-variant-caps:normal;font-variant-numeric:normal;font-variant-east-asian:normal;white-space:pre;shape-inside:url(#rect347);display:inline;fill:#070707;fill-opacity:1;stroke-width:7.55906;stroke-linecap:round;stroke-linejoin:round;paint-order:stroke fill markers"><tspan
             x="602.36523"
             y="232.53757"
             id="tspan1">BibloUE</tspan></text><g
           id="g339"
           transform="matrix(0.7648521,0,0,0.7648521,68.380657,173.21044)"><path
             style="fill:#dd0034;fill-opacity:1;stroke-width:1.96153;stroke-linecap:round;stroke-linejoin:round;paint-order:stroke fill markers"
             id="path336"
             sodipodi:type="arc"
             sodipodi:cx="146.76366"
             sodipodi:cy="94.724998"
             sodipodi:rx="9.978261"
             sodipodi:ry="9.978261"
             sodipodi:start="0"
             sodipodi:end="6.1526183"
             sodipodi:open="true"
             sodipodi:arc-type="arc"
             d="m 156.74192,94.724998 a 9.978261,9.978261 0 0 1 -9.65261,9.972942 9.978261,9.978261 0 0 1 -10.28266,-9.321988 9.978261,9.978261 0 0 1 8.98144,-10.58141 9.978261,9.978261 0 0 1 10.86889,8.631323" /><path
             style="fill:#1c3d8d;fill-opacity:1;stroke-width:1.96153;stroke-linecap:round;stroke-linejoin:round;paint-order:stroke fill markers"
             id="path337"
             sodipodi:type="arc"
             sodipodi:cx="155.58577"
             sodipodi:cy="88.839767"
             sodipodi:rx="9.978261"
             sodipodi:ry="9.978261"
             sodipodi:start="0"
             sodipodi:end="6.1526183"
             sodipodi:open="true"
             sodipodi:arc-type="arc"
             d="m 165.56403,88.839767 a 9.978261,9.978261 0 0 1 -9.65261,9.972946 9.978261,9.978261 0 0 1 -10.28266,-9.321992 9.978261,9.978261 0 0 1 8.98145,-10.58141 9.978261,9.978261 0 0 1 10.86889,8.631323" /><path
             style="fill:#ffffff;fill-opacity:1;stroke-width:2;stroke-linecap:round;stroke-linejoin:round;paint-order:stroke fill markers"
             d="m 141.50543,87.701087 h 2.88587 v 9.097825 c 0,0 0.0978,1.809782 2.29892,1.809782 2.20108,0 2.10326,-2.298912 2.10326,-2.298912 l -0.0519,-7.366541 2.54348,0.121053 0.0519,8.810705 c 0,0 -0.44022,3.961951 -4.74457,3.961951 -4.30435,0 -4.94022,-4.108689 -4.94022,-4.402168 0,-2.445652 -0.14674,-9.733695 -0.14674,-9.733695 z"
             id="path338"
             sodipodi:nodetypes="cccsccccssc" /><path
             id="path339"
             style="fill:#ffffff;fill-opacity:1;stroke-width:2;stroke-linecap:round;stroke-linejoin:round;paint-order:stroke fill markers"
             d="m 155.64011,81.936084 c -7.5399,0 -6.88226,8.127669 -6.88226,8.127669 0,0 0.79548,5.845122 6.84816,5.845122 4.4271,0 6.43268,-3.354749 6.43268,-4.254004 h -4.35788 c 0,0 -0.76091,0.933793 -1.97145,0.933793 -1.66016,0 -2.69758,-1.4181 -2.76676,-2.490288 l 9.61492,-0.03462 c 0,0 0.62249,-8.127669 -6.91741,-8.127669 z m -0.0687,3.458704 c 2.55943,0 2.66289,2.282548 2.66289,2.282548 h -5.32629 c 0,0 0.104,-2.282548 2.6634,-2.282548 z" /></g></g></g></g></svg>
